<mxfile host="65bd71144e" pages="8">
    <diagram id="QVXukRcYZEAoWH2xmHe6" name="Tela de login">
        <mxGraphModel dx="774" dy="601" grid="1" gridSize="10" guides="1" tooltips="1" connect="0" arrows="0" fold="0" page="1" pageScale="1" pageWidth="827" pageHeight="1169" background="#ffffff" math="0" shadow="0">
            <root>
                <mxCell id="0"/>
                <mxCell id="1" parent="0"/>
                <mxCell id="Vdv9BuPVUVirSSIy-L4S-1" value="" style="group;" parent="1" vertex="1" connectable="0">
                    <mxGeometry width="360" height="640" as="geometry"/>
                </mxCell>
                <mxCell id="Vdv9BuPVUVirSSIy-L4S-2" value="" style="shape=rect;fillColor=#333333;strokeColor=none;" parent="Vdv9BuPVUVirSSIy-L4S-1" vertex="1">
                    <mxGeometry width="360" height="640" as="geometry"/>
                </mxCell>
                <mxCell id="Vdv9BuPVUVirSSIy-L4S-3" value="" style="strokeWidth=1;shadow=0;dashed=0;align=center;html=1;shape=mxgraph.mockup.containers.browserWindow;rSize=0;strokeColor=#666666;strokeColor2=#008cff;strokeColor3=#c4c4c4;mainText=,;recursiveResize=0;" parent="Vdv9BuPVUVirSSIy-L4S-1" vertex="1">
                    <mxGeometry x="10" y="10" width="340" height="620" as="geometry"/>
                </mxCell>
                <UserObject label="&lt;font color=&quot;#000000&quot;&gt;Esqueceu a senha? &lt;/font&gt;&lt;u&gt;Clique aqui para redefinir sua senha&lt;/u&gt;&lt;font color=&quot;#000000&quot;&gt;.&lt;/font&gt;" link="data:page/id,Tg6_4VK22YlRRJGs_QcX" id="Vdv9BuPVUVirSSIy-L4S-14">
                    <mxCell style="text;html=1;strokeColor=none;fillColor=none;align=center;verticalAlign=middle;whiteSpace=wrap;rounded=0;fontStyle=0;fontColor=#0000FF;" parent="Vdv9BuPVUVirSSIy-L4S-3" vertex="1">
                        <mxGeometry x="10" y="485" width="320" height="35" as="geometry"/>
                    </mxCell>
                </UserObject>
                <mxCell id="Vdv9BuPVUVirSSIy-L4S-4" value="Sign-in" style="strokeWidth=1;shadow=0;dashed=0;align=center;html=1;shape=mxgraph.mockup.containers.anchor;fontSize=17;fontColor=#666666;align=left;whiteSpace=wrap;" parent="Vdv9BuPVUVirSSIy-L4S-3" vertex="1">
                    <mxGeometry x="60" y="12" width="110" height="26" as="geometry"/>
                </mxCell>
                <mxCell id="Vdv9BuPVUVirSSIy-L4S-5" value="projeto-lumos/sign-in" style="strokeWidth=1;shadow=0;dashed=0;align=center;html=1;shape=mxgraph.mockup.containers.anchor;rSize=0;fontSize=17;fontColor=#666666;align=left;" parent="Vdv9BuPVUVirSSIy-L4S-3" vertex="1">
                    <mxGeometry x="130" y="60" width="200" height="26" as="geometry"/>
                </mxCell>
                <mxCell id="Vdv9BuPVUVirSSIy-L4S-6" value="" style="ellipse;whiteSpace=wrap;html=1;aspect=fixed;" parent="Vdv9BuPVUVirSSIy-L4S-3" vertex="1">
                    <mxGeometry x="107.5" y="121" width="125" height="125" as="geometry"/>
                </mxCell>
                <mxCell id="Vdv9BuPVUVirSSIy-L4S-7" value="PROJETO LUMOS" style="text;strokeColor=none;fillColor=none;html=1;fontSize=24;fontStyle=1;verticalAlign=middle;align=center;labelBackgroundColor=#FFFFFF;" parent="Vdv9BuPVUVirSSIy-L4S-3" vertex="1">
                    <mxGeometry x="5" y="163.5" width="330" height="40" as="geometry"/>
                </mxCell>
                <mxCell id="Vdv9BuPVUVirSSIy-L4S-8" value="E-mail:" style="text;html=1;strokeColor=none;fillColor=none;align=left;verticalAlign=bottom;whiteSpace=wrap;rounded=0;fontStyle=1" parent="Vdv9BuPVUVirSSIy-L4S-3" vertex="1">
                    <mxGeometry x="10" y="246" width="320" height="30" as="geometry"/>
                </mxCell>
                <mxCell id="Vdv9BuPVUVirSSIy-L4S-9" value="&lt;div style=&quot;font-size: 14px;&quot; align=&quot;left&quot;&gt;exemplo@email.com&lt;/div&gt;" style="rounded=1;whiteSpace=wrap;html=1;align=left;fontColor=#808080;fontSize=14;" parent="Vdv9BuPVUVirSSIy-L4S-3" vertex="1">
                    <mxGeometry x="10" y="276" width="320" height="25" as="geometry"/>
                </mxCell>
                <mxCell id="Vdv9BuPVUVirSSIy-L4S-10" value="&lt;div style=&quot;font-size: 30px;&quot; align=&quot;left&quot;&gt;&lt;font style=&quot;font-size: 30px;&quot;&gt;&lt;b style=&quot;font-size: 30px;&quot;&gt;********&lt;/b&gt;&lt;/font&gt;&lt;/div&gt;" style="rounded=1;whiteSpace=wrap;html=1;align=left;fontSize=30;verticalAlign=middle;horizontal=1;spacingTop=20;fontColor=#808080;" parent="Vdv9BuPVUVirSSIy-L4S-3" vertex="1">
                    <mxGeometry x="10" y="351" width="320" height="24" as="geometry"/>
                </mxCell>
                <mxCell id="Vdv9BuPVUVirSSIy-L4S-11" value="Senha:" style="text;html=1;strokeColor=none;fillColor=none;align=left;verticalAlign=bottom;whiteSpace=wrap;rounded=0;fontStyle=1" parent="Vdv9BuPVUVirSSIy-L4S-3" vertex="1">
                    <mxGeometry x="10" y="321" width="320" height="30" as="geometry"/>
                </mxCell>
                <mxCell id="Vdv9BuPVUVirSSIy-L4S-12" value="" style="whiteSpace=wrap;html=1;aspect=fixed;" parent="Vdv9BuPVUVirSSIy-L4S-3" vertex="1">
                    <mxGeometry x="10" y="395" width="20" height="20" as="geometry"/>
                </mxCell>
                <mxCell id="Vdv9BuPVUVirSSIy-L4S-13" value="Manter conecxão" style="text;html=1;strokeColor=none;fillColor=none;align=center;verticalAlign=middle;whiteSpace=wrap;rounded=0;" parent="Vdv9BuPVUVirSSIy-L4S-3" vertex="1">
                    <mxGeometry x="30" y="395" width="100" height="20" as="geometry"/>
                </mxCell>
                <UserObject label="Login" link="data:page/id,yGj1j8o3CC4hvEhsWFOq" id="Vdv9BuPVUVirSSIy-L4S-15">
                    <mxCell style="html=1;shadow=0;dashed=0;shape=mxgraph.bootstrap.rrect;rSize=5;strokeColor=none;strokeWidth=1;fillColor=#0085FC;fontColor=#FFFFFF;whiteSpace=wrap;align=center;verticalAlign=middle;spacingLeft=0;fontStyle=0;fontSize=16;spacing=5;" parent="Vdv9BuPVUVirSSIy-L4S-3" vertex="1">
                        <mxGeometry x="10" y="445" width="320" height="40" as="geometry"/>
                    </mxCell>
                </UserObject>
                <mxCell id="xp5IXckP9Dg446H2ewsu-7" value="O e-mail e/ou a senha estão incorretos!" style="html=1;shadow=0;dashed=0;shape=mxgraph.bootstrap.rrect;rSize=5;strokeColor=#F4C5CB;strokeWidth=1;fillColor=#F8D6DA;fontColor=#711623;whiteSpace=wrap;align=left;verticalAlign=middle;spacingLeft=10;" parent="Vdv9BuPVUVirSSIy-L4S-3" vertex="1">
                    <mxGeometry x="10" y="555" width="320" height="40" as="geometry"/>
                </mxCell>
                <UserObject label="Ainda não tem uma conta? &lt;font color=&quot;#0000FF&quot;&gt;&lt;u&gt;Registre-se aqui&lt;/u&gt;&lt;/font&gt;." link="data:page/id,ULmX6C8u3NB8f6NQlkoH" id="xp5IXckP9Dg446H2ewsu-8">
                    <mxCell style="text;strokeColor=none;align=center;fillColor=none;html=1;verticalAlign=middle;whiteSpace=wrap;rounded=0;" parent="Vdv9BuPVUVirSSIy-L4S-1" vertex="1">
                        <mxGeometry x="20" y="530" width="320" height="30" as="geometry"/>
                    </mxCell>
                </UserObject>
            </root>
        </mxGraphModel>
    </diagram>
    <diagram id="ULmX6C8u3NB8f6NQlkoH" name="Tela de cadastro de usuário">
        <mxGraphModel dx="774" dy="601" grid="1" gridSize="10" guides="1" tooltips="1" connect="0" arrows="0" fold="1" page="1" pageScale="1" pageWidth="827" pageHeight="1169" math="0" shadow="0">
            <root>
                <mxCell id="0"/>
                <mxCell id="1" parent="0"/>
                <mxCell id="MP8zLyqFTEhVj600t6fu-1" value="" style="group" parent="1" vertex="1" connectable="0">
                    <mxGeometry width="360" height="640" as="geometry"/>
                </mxCell>
                <mxCell id="UWocLeapKV_h0xcbL4Y1-8" value="" style="shape=rect;fillColor=#333333;strokeColor=none;" parent="MP8zLyqFTEhVj600t6fu-1" vertex="1">
                    <mxGeometry width="360" height="640" as="geometry"/>
                </mxCell>
                <mxCell id="UWocLeapKV_h0xcbL4Y1-10" value="" style="strokeWidth=1;shadow=0;dashed=0;align=center;html=1;shape=mxgraph.mockup.containers.browserWindow;rSize=0;strokeColor=#666666;strokeColor2=#008cff;strokeColor3=#c4c4c4;mainText=,;recursiveResize=0;" parent="MP8zLyqFTEhVj600t6fu-1" vertex="1">
                    <mxGeometry x="10" y="10" width="340" height="620" as="geometry"/>
                </mxCell>
                <mxCell id="UWocLeapKV_h0xcbL4Y1-11" value="Sign-up" style="strokeWidth=1;shadow=0;dashed=0;align=center;html=1;shape=mxgraph.mockup.containers.anchor;fontSize=17;fontColor=#666666;align=left;whiteSpace=wrap;" parent="UWocLeapKV_h0xcbL4Y1-10" vertex="1">
                    <mxGeometry x="60" y="12" width="110" height="26" as="geometry"/>
                </mxCell>
                <mxCell id="UWocLeapKV_h0xcbL4Y1-12" value="projeto-lumos/sign-up" style="strokeWidth=1;shadow=0;dashed=0;align=center;html=1;shape=mxgraph.mockup.containers.anchor;rSize=0;fontSize=17;fontColor=#666666;align=left;" parent="UWocLeapKV_h0xcbL4Y1-10" vertex="1">
                    <mxGeometry x="130" y="60" width="190" height="26" as="geometry"/>
                </mxCell>
                <mxCell id="7kja0_0EhPX-HCln8B6n-1" value="Novo usuário" style="text;strokeColor=none;fillColor=none;html=1;fontSize=24;fontStyle=1;verticalAlign=middle;align=center;" parent="UWocLeapKV_h0xcbL4Y1-10" vertex="1">
                    <mxGeometry x="120" y="120" width="100" height="40" as="geometry"/>
                </mxCell>
                <mxCell id="7kja0_0EhPX-HCln8B6n-122" value="Nome:" style="text;strokeColor=none;align=left;fillColor=none;html=1;verticalAlign=top;whiteSpace=wrap;rounded=0;" parent="UWocLeapKV_h0xcbL4Y1-10" vertex="1">
                    <mxGeometry x="10" y="180" width="320" height="30" as="geometry"/>
                </mxCell>
                <mxCell id="7kja0_0EhPX-HCln8B6n-127" value="E-mail: &lt;font color=&quot;#ff0000&quot;&gt;*&lt;/font&gt;" style="text;strokeColor=none;align=left;fillColor=none;html=1;verticalAlign=top;whiteSpace=wrap;rounded=0;" parent="UWocLeapKV_h0xcbL4Y1-10" vertex="1">
                    <mxGeometry x="10" y="260" width="320" height="30" as="geometry"/>
                </mxCell>
                <mxCell id="7kja0_0EhPX-HCln8B6n-128" value="&lt;div align=&quot;left&quot;&gt;&amp;nbsp;&lt;font color=&quot;#77767b&quot;&gt;exemplo@email.com&lt;/font&gt;&lt;/div&gt;" style="whiteSpace=wrap;html=1;align=left;" parent="UWocLeapKV_h0xcbL4Y1-10" vertex="1">
                    <mxGeometry x="10" y="280" width="320" height="20" as="geometry"/>
                </mxCell>
                <mxCell id="7kja0_0EhPX-HCln8B6n-129" value="Campo obrigatório!" style="html=1;shadow=0;dashed=0;shape=mxgraph.bootstrap.rrect;rSize=5;strokeColor=#FFECBC;strokeWidth=1;fillColor=#FFF1CF;fontColor=#856110;whiteSpace=wrap;align=left;verticalAlign=middle;spacingLeft=10;" parent="UWocLeapKV_h0xcbL4Y1-10" vertex="1">
                    <mxGeometry x="10" y="230" width="150" height="20" as="geometry"/>
                </mxCell>
                <mxCell id="7kja0_0EhPX-HCln8B6n-130" value="Campo obrigatório!" style="html=1;shadow=0;dashed=0;shape=mxgraph.bootstrap.rrect;rSize=5;strokeColor=#FFECBC;strokeWidth=1;fillColor=#FFF1CF;fontColor=#856110;whiteSpace=wrap;align=left;verticalAlign=middle;spacingLeft=10;" parent="UWocLeapKV_h0xcbL4Y1-10" vertex="1">
                    <mxGeometry x="10" y="310" width="320" height="20" as="geometry"/>
                </mxCell>
                <mxCell id="7kja0_0EhPX-HCln8B6n-131" value="E-mail já cadastrado!" style="html=1;shadow=0;dashed=0;shape=mxgraph.bootstrap.rrect;rSize=5;strokeColor=#F4C5CB;strokeWidth=1;fillColor=#F8D6DA;fontColor=#711623;whiteSpace=wrap;align=left;verticalAlign=middle;spacingLeft=10;" parent="UWocLeapKV_h0xcbL4Y1-10" vertex="1">
                    <mxGeometry x="10" y="340" width="320" height="20" as="geometry"/>
                </mxCell>
                <mxCell id="7kja0_0EhPX-HCln8B6n-132" value="Senha: &lt;font color=&quot;#FF0000&quot;&gt;*&lt;/font&gt;" style="text;strokeColor=none;align=left;fillColor=none;html=1;verticalAlign=top;whiteSpace=wrap;rounded=0;" parent="UWocLeapKV_h0xcbL4Y1-10" vertex="1">
                    <mxGeometry x="10" y="370" width="320" height="30" as="geometry"/>
                </mxCell>
                <mxCell id="7kja0_0EhPX-HCln8B6n-133" value="&lt;font style=&quot;font-size: 30px;&quot;&gt;&amp;nbsp;********&lt;/font&gt;" style="whiteSpace=wrap;html=1;align=left;fontStyle=1;fontSize=30;verticalAlign=top;spacing=0;labelPosition=center;verticalLabelPosition=middle;textDirection=ltr;spacingTop=-3;fontColor=#808080;" parent="UWocLeapKV_h0xcbL4Y1-10" vertex="1">
                    <mxGeometry x="10" y="390" width="320" height="20" as="geometry"/>
                </mxCell>
                <mxCell id="7kja0_0EhPX-HCln8B6n-136" value="Campo obrigatório!" style="html=1;shadow=0;dashed=0;shape=mxgraph.bootstrap.rrect;rSize=5;strokeColor=#FFECBC;strokeWidth=1;fillColor=#FFF1CF;fontColor=#856110;whiteSpace=wrap;align=left;verticalAlign=middle;spacingLeft=10;" parent="UWocLeapKV_h0xcbL4Y1-10" vertex="1">
                    <mxGeometry x="10" y="420" width="320" height="20" as="geometry"/>
                </mxCell>
                <mxCell id="7kja0_0EhPX-HCln8B6n-134" value="Repetir senha: &lt;font color=&quot;#FF0000&quot;&gt;*&lt;/font&gt;" style="text;strokeColor=none;align=left;fillColor=none;html=1;verticalAlign=top;whiteSpace=wrap;rounded=0;" parent="UWocLeapKV_h0xcbL4Y1-10" vertex="1">
                    <mxGeometry x="10" y="440" width="320" height="30" as="geometry"/>
                </mxCell>
                <mxCell id="7kja0_0EhPX-HCln8B6n-135" value="&lt;font style=&quot;font-size: 30px;&quot;&gt;&amp;nbsp;********&lt;/font&gt;" style="whiteSpace=wrap;html=1;align=left;fontStyle=1;fontSize=30;verticalAlign=top;spacing=0;labelPosition=center;verticalLabelPosition=middle;textDirection=ltr;spacingTop=-3;fontColor=#808080;" parent="UWocLeapKV_h0xcbL4Y1-10" vertex="1">
                    <mxGeometry x="10" y="460" width="320" height="20" as="geometry"/>
                </mxCell>
                <mxCell id="7kja0_0EhPX-HCln8B6n-137" value="Campo obrigatório!" style="html=1;shadow=0;dashed=0;shape=mxgraph.bootstrap.rrect;rSize=5;strokeColor=#FFECBC;strokeWidth=1;fillColor=#FFF1CF;fontColor=#856110;whiteSpace=wrap;align=left;verticalAlign=middle;spacingLeft=10;" parent="UWocLeapKV_h0xcbL4Y1-10" vertex="1">
                    <mxGeometry x="10" y="490" width="320" height="20" as="geometry"/>
                </mxCell>
                <mxCell id="7kja0_0EhPX-HCln8B6n-138" value="As senhas são conferem!" style="html=1;shadow=0;dashed=0;shape=mxgraph.bootstrap.rrect;rSize=5;strokeColor=#F4C5CB;strokeWidth=1;fillColor=#F8D6DA;fontColor=#711623;whiteSpace=wrap;align=left;verticalAlign=middle;spacingLeft=10;" parent="UWocLeapKV_h0xcbL4Y1-10" vertex="1">
                    <mxGeometry x="10" y="520" width="320" height="20" as="geometry"/>
                </mxCell>
                <mxCell id="7kja0_0EhPX-HCln8B6n-2" value="" style="line;strokeWidth=2;html=1;" parent="MP8zLyqFTEhVj600t6fu-1" vertex="1">
                    <mxGeometry x="20" y="170" width="320" height="10" as="geometry"/>
                </mxCell>
                <mxCell id="7kja0_0EhPX-HCln8B6n-123" value="&lt;div&gt;&lt;font color=&quot;#808080&quot;&gt;&amp;nbsp;Primeiro nome&lt;/font&gt; &lt;font color=&quot;#FF0000&quot;&gt;*&lt;/font&gt;&lt;br&gt;&lt;/div&gt;" style="whiteSpace=wrap;html=1;align=left;" parent="MP8zLyqFTEhVj600t6fu-1" vertex="1">
                    <mxGeometry x="20" y="210" width="150" height="20" as="geometry"/>
                </mxCell>
                <mxCell id="7kja0_0EhPX-HCln8B6n-126" value="&lt;font color=&quot;#808080&quot;&gt;&amp;nbsp;Ultimo nome&lt;/font&gt;" style="whiteSpace=wrap;html=1;align=left;verticalAlign=middle;" parent="MP8zLyqFTEhVj600t6fu-1" vertex="1">
                    <mxGeometry x="190" y="210" width="150" height="20" as="geometry"/>
                </mxCell>
                <mxCell id="7kja0_0EhPX-HCln8B6n-139" value="" style="html=1;shadow=0;dashed=0;shape=mxgraph.bootstrap.rrect;rSize=5;strokeColor=none;html=1;whiteSpace=wrap;fillColor=#ffffff;fontColor=#0085FC;" parent="MP8zLyqFTEhVj600t6fu-1" vertex="1">
                    <mxGeometry x="120" y="565" width="120" height="40" as="geometry"/>
                </mxCell>
                <mxCell id="7kja0_0EhPX-HCln8B6n-140" value="1" style="strokeColor=#dee2e6;fillColor=inherit;gradientColor=inherit;html=1;shadow=0;dashed=0;shape=mxgraph.bootstrap.leftButton;rSize=5;perimeter=none;whiteSpace=wrap;resizeHeight=1;fillColor=#0085FC;strokeColor=none;fontColor=#ffffff;fontSize=16;" parent="7kja0_0EhPX-HCln8B6n-139" vertex="1">
                    <mxGeometry width="40" height="40" relative="1" as="geometry"/>
                </mxCell>
                <mxCell id="7kja0_0EhPX-HCln8B6n-141" value="2" style="strokeColor=#dee2e6;fillColor=inherit;gradientColor=inherit;fontColor=inherit;html=1;shadow=0;dashed=0;perimeter=none;whiteSpace=wrap;resizeHeight=1;fontSize=16;" parent="7kja0_0EhPX-HCln8B6n-139" vertex="1">
                    <mxGeometry width="40" height="40" relative="1" as="geometry">
                        <mxPoint x="40" as="offset"/>
                    </mxGeometry>
                </mxCell>
                <mxCell id="7kja0_0EhPX-HCln8B6n-142" value="3" style="strokeColor=#dee2e6;fillColor=inherit;gradientColor=inherit;fontColor=inherit;html=1;shadow=0;dashed=0;shape=mxgraph.bootstrap.rightButton;rSize=5;perimeter=none;whiteSpace=wrap;resizeHeight=1;fontSize=16;" parent="7kja0_0EhPX-HCln8B6n-139" vertex="1">
                    <mxGeometry x="1" width="40" height="40" relative="1" as="geometry">
                        <mxPoint x="-40" as="offset"/>
                    </mxGeometry>
                </mxCell>
                <mxCell id="7kja0_0EhPX-HCln8B6n-143" value="" style="group" parent="1" vertex="1" connectable="0">
                    <mxGeometry x="414" width="360" height="640" as="geometry"/>
                </mxCell>
                <mxCell id="7kja0_0EhPX-HCln8B6n-144" value="" style="shape=rect;fillColor=#333333;strokeColor=none;" parent="7kja0_0EhPX-HCln8B6n-143" vertex="1">
                    <mxGeometry width="360" height="640" as="geometry"/>
                </mxCell>
                <mxCell id="7kja0_0EhPX-HCln8B6n-145" value="" style="strokeWidth=1;shadow=0;dashed=0;align=center;html=1;shape=mxgraph.mockup.containers.browserWindow;rSize=0;strokeColor=#666666;strokeColor2=#008cff;strokeColor3=#c4c4c4;mainText=,;recursiveResize=0;" parent="7kja0_0EhPX-HCln8B6n-143" vertex="1">
                    <mxGeometry x="10" y="10" width="340" height="620" as="geometry"/>
                </mxCell>
                <mxCell id="7kja0_0EhPX-HCln8B6n-184" value="Bio ou status:" style="rounded=0;whiteSpace=wrap;html=1;labelPosition=center;verticalLabelPosition=top;align=left;verticalAlign=bottom;" parent="7kja0_0EhPX-HCln8B6n-145" vertex="1">
                    <mxGeometry x="10" y="450" width="320" height="90" as="geometry"/>
                </mxCell>
                <mxCell id="7kja0_0EhPX-HCln8B6n-146" value="Sign-up" style="strokeWidth=1;shadow=0;dashed=0;align=center;html=1;shape=mxgraph.mockup.containers.anchor;fontSize=17;fontColor=#666666;align=left;whiteSpace=wrap;" parent="7kja0_0EhPX-HCln8B6n-145" vertex="1">
                    <mxGeometry x="60" y="12" width="110" height="26" as="geometry"/>
                </mxCell>
                <mxCell id="7kja0_0EhPX-HCln8B6n-147" value="projeto-lumos/sign-up" style="strokeWidth=1;shadow=0;dashed=0;align=center;html=1;shape=mxgraph.mockup.containers.anchor;rSize=0;fontSize=17;fontColor=#666666;align=left;" parent="7kja0_0EhPX-HCln8B6n-145" vertex="1">
                    <mxGeometry x="130" y="60" width="190" height="26" as="geometry"/>
                </mxCell>
                <mxCell id="7kja0_0EhPX-HCln8B6n-152" value="Telefone:" style="text;strokeColor=none;align=left;fillColor=none;html=1;verticalAlign=top;whiteSpace=wrap;rounded=0;" parent="7kja0_0EhPX-HCln8B6n-145" vertex="1">
                    <mxGeometry x="10" y="120" width="320" height="30" as="geometry"/>
                </mxCell>
                <mxCell id="7kja0_0EhPX-HCln8B6n-160" value="+55" style="whiteSpace=wrap;html=1;" parent="7kja0_0EhPX-HCln8B6n-145" vertex="1">
                    <mxGeometry x="10" y="140" width="40" height="20" as="geometry"/>
                </mxCell>
                <mxCell id="7kja0_0EhPX-HCln8B6n-163" value="Foto de perfil:" style="fillColor=none;strokeColor=none;align=left;fontSize=14;" parent="7kja0_0EhPX-HCln8B6n-145" vertex="1">
                    <mxGeometry x="10" y="180" width="150" height="40" as="geometry"/>
                </mxCell>
                <mxCell id="7kja0_0EhPX-HCln8B6n-164" value="Choose File" style="fillColor=#FEFEFE;strokeColor=#AAAAAA;fontSize=14;gradientColor=#F0F0F0;" parent="7kja0_0EhPX-HCln8B6n-145" vertex="1">
                    <mxGeometry x="10" y="220" width="90" height="30" as="geometry"/>
                </mxCell>
                <mxCell id="7kja0_0EhPX-HCln8B6n-165" value="No file chosen" style="fillColor=none;strokeColor=none;align=left;fontSize=14;spacing=5;" parent="7kja0_0EhPX-HCln8B6n-145" vertex="1">
                    <mxGeometry x="100" y="220" width="100" height="30" as="geometry"/>
                </mxCell>
                <mxCell id="7kja0_0EhPX-HCln8B6n-153" value="&lt;font color=&quot;#808080&quot;&gt;&amp;nbsp;(XX) 9 XXXX-XXXX&lt;/font&gt;" style="whiteSpace=wrap;html=1;align=left;" parent="7kja0_0EhPX-HCln8B6n-145" vertex="1">
                    <mxGeometry x="50" y="140" width="280" height="20" as="geometry"/>
                </mxCell>
                <mxCell id="7kja0_0EhPX-HCln8B6n-170" value="" style="sketch=0;outlineConnect=0;fontColor=#ffffff;fillColor=#647687;strokeColor=#314354;dashed=0;verticalLabelPosition=bottom;verticalAlign=top;align=center;html=1;fontSize=12;fontStyle=0;aspect=fixed;pointerEvents=1;shape=mxgraph.aws4.container_registry_image;" parent="7kja0_0EhPX-HCln8B6n-145" vertex="1">
                    <mxGeometry x="10" y="260" width="120" height="120" as="geometry"/>
                </mxCell>
                <mxCell id="9OnwvqXDnQ-zbljjmTwU-1" value="O arquivo upado não é uma imagem!" style="html=1;shadow=0;dashed=0;shape=mxgraph.bootstrap.rrect;rSize=5;strokeColor=#FFECBC;strokeWidth=1;fillColor=#FFF1CF;fontColor=#856110;whiteSpace=wrap;align=left;verticalAlign=middle;spacingLeft=10;" parent="7kja0_0EhPX-HCln8B6n-145" vertex="1">
                    <mxGeometry x="10" y="400" width="320" height="20" as="geometry"/>
                </mxCell>
                <mxCell id="7kja0_0EhPX-HCln8B6n-148" value="" style="html=1;shadow=0;dashed=0;shape=mxgraph.bootstrap.rrect;rSize=5;strokeColor=none;html=1;whiteSpace=wrap;fillColor=#ffffff;fontColor=#0085FC;" parent="7kja0_0EhPX-HCln8B6n-143" vertex="1">
                    <mxGeometry x="120" y="565" width="120" height="40" as="geometry"/>
                </mxCell>
                <mxCell id="7kja0_0EhPX-HCln8B6n-149" value="1" style="html=1;shadow=0;dashed=0;shape=mxgraph.bootstrap.leftButton;rSize=5;perimeter=none;whiteSpace=wrap;resizeHeight=1;fillColor=none;strokeColor=#DEE2E6;fontSize=16;labelBackgroundColor=none;fontColor=#0085FC;" parent="7kja0_0EhPX-HCln8B6n-148" vertex="1">
                    <mxGeometry width="40" height="40" relative="1" as="geometry"/>
                </mxCell>
                <mxCell id="7kja0_0EhPX-HCln8B6n-150" value="2" style="strokeColor=#DEE2E6;fillColor=#0085FC;gradientColor=inherit;fontColor=#ffffff;html=1;shadow=0;dashed=0;perimeter=none;whiteSpace=wrap;resizeHeight=1;fontSize=16;rounded=0;" parent="7kja0_0EhPX-HCln8B6n-148" vertex="1">
                    <mxGeometry width="40" height="40" relative="1" as="geometry">
                        <mxPoint x="40" as="offset"/>
                    </mxGeometry>
                </mxCell>
                <mxCell id="7kja0_0EhPX-HCln8B6n-151" value="3" style="strokeColor=#DEE2E6;fillColor=inherit;gradientColor=inherit;fontColor=inherit;html=1;shadow=0;dashed=0;shape=mxgraph.bootstrap.rightButton;rSize=5;perimeter=none;whiteSpace=wrap;resizeHeight=1;fontSize=16;" parent="7kja0_0EhPX-HCln8B6n-148" vertex="1">
                    <mxGeometry x="1" width="40" height="40" relative="1" as="geometry">
                        <mxPoint x="-40" as="offset"/>
                    </mxGeometry>
                </mxCell>
                <mxCell id="7kja0_0EhPX-HCln8B6n-173" value="" style="group" parent="1" vertex="1" connectable="0">
                    <mxGeometry x="827" width="360" height="640" as="geometry"/>
                </mxCell>
                <mxCell id="7kja0_0EhPX-HCln8B6n-174" value="" style="shape=rect;fillColor=#333333;strokeColor=none;" parent="7kja0_0EhPX-HCln8B6n-173" vertex="1">
                    <mxGeometry width="360" height="640" as="geometry"/>
                </mxCell>
                <mxCell id="7kja0_0EhPX-HCln8B6n-175" value="" style="strokeWidth=1;shadow=0;dashed=0;align=center;html=1;shape=mxgraph.mockup.containers.browserWindow;rSize=0;strokeColor=#666666;strokeColor2=#008cff;strokeColor3=#c4c4c4;mainText=,;recursiveResize=0;" parent="7kja0_0EhPX-HCln8B6n-173" vertex="1">
                    <mxGeometry x="10" y="10" width="340" height="620" as="geometry"/>
                </mxCell>
                <mxCell id="7kja0_0EhPX-HCln8B6n-176" value="Sign-up" style="strokeWidth=1;shadow=0;dashed=0;align=center;html=1;shape=mxgraph.mockup.containers.anchor;fontSize=17;fontColor=#666666;align=left;whiteSpace=wrap;" parent="7kja0_0EhPX-HCln8B6n-175" vertex="1">
                    <mxGeometry x="60" y="12" width="110" height="26" as="geometry"/>
                </mxCell>
                <mxCell id="7kja0_0EhPX-HCln8B6n-177" value="projeto-lumos/sign-up" style="strokeWidth=1;shadow=0;dashed=0;align=center;html=1;shape=mxgraph.mockup.containers.anchor;rSize=0;fontSize=17;fontColor=#666666;align=left;" parent="7kja0_0EhPX-HCln8B6n-175" vertex="1">
                    <mxGeometry x="130" y="60" width="190" height="26" as="geometry"/>
                </mxCell>
                <mxCell id="7kja0_0EhPX-HCln8B6n-171" value="Você precisa aceitar as diretrizes da comunidade!" style="html=1;shadow=0;dashed=0;shape=mxgraph.bootstrap.rrect;rSize=5;strokeColor=#F4C5CB;strokeWidth=1;fillColor=#F8D6DA;fontColor=#711623;whiteSpace=wrap;align=left;verticalAlign=middle;spacingLeft=10;" parent="7kja0_0EhPX-HCln8B6n-175" vertex="1">
                    <mxGeometry x="15" y="450" width="315" height="20" as="geometry"/>
                </mxCell>
                <UserObject label="Cadastrar" link="data:page/id,QVXukRcYZEAoWH2xmHe6" id="7kja0_0EhPX-HCln8B6n-19">
                    <mxCell style="html=1;shadow=0;dashed=0;shape=mxgraph.bootstrap.rrect;rSize=5;strokeColor=none;strokeWidth=1;fillColor=#0085FC;fontColor=#FFFFFF;whiteSpace=wrap;align=center;verticalAlign=middle;spacingLeft=0;fontStyle=0;fontSize=16;spacing=5;" parent="7kja0_0EhPX-HCln8B6n-175" vertex="1">
                        <mxGeometry x="15" y="490" width="315" height="40" as="geometry"/>
                    </mxCell>
                </UserObject>
                <mxCell id="9OnwvqXDnQ-zbljjmTwU-2" value="Aceito as diretrizes da comunidade." style="html=1;shadow=0;dashed=0;shape=mxgraph.bootstrap.switch;strokeColor=#ADB6BD;strokeWidth=1;fillColor=#ffffff;fontColor=#212529;onStrokeColor=#ffffff;onFillColor=#0085FC;align=left;verticalAlign=middle;spacingLeft=10;labelPosition=right;verticalLabelPosition=middle;buttonState=0;sketch=0;" parent="7kja0_0EhPX-HCln8B6n-175" vertex="1">
                    <mxGeometry x="15" y="430" width="20" height="10" as="geometry"/>
                </mxCell>
                <mxCell id="7kja0_0EhPX-HCln8B6n-178" value="" style="html=1;shadow=0;dashed=0;shape=mxgraph.bootstrap.rrect;rSize=5;strokeColor=none;html=1;whiteSpace=wrap;fillColor=#ffffff;fontColor=#0085FC;" parent="7kja0_0EhPX-HCln8B6n-173" vertex="1">
                    <mxGeometry x="120" y="565" width="120" height="40" as="geometry"/>
                </mxCell>
                <mxCell id="7kja0_0EhPX-HCln8B6n-179" value="1" style="html=1;shadow=0;dashed=0;shape=mxgraph.bootstrap.leftButton;rSize=5;perimeter=none;whiteSpace=wrap;resizeHeight=1;fillColor=none;strokeColor=#DEE2E6;fontSize=16;labelBackgroundColor=none;fontColor=#0085FC;perimeterSpacing=1;labelBorderColor=none;" parent="7kja0_0EhPX-HCln8B6n-178" vertex="1">
                    <mxGeometry width="40" height="40" relative="1" as="geometry"/>
                </mxCell>
                <mxCell id="7kja0_0EhPX-HCln8B6n-180" value="2" style="strokeColor=#DEE2E6;fillColor=none;gradientColor=inherit;fontColor=#0085FC;html=1;shadow=0;dashed=0;perimeter=none;whiteSpace=wrap;resizeHeight=1;fontSize=16;rounded=0;labelBackgroundColor=none;" parent="7kja0_0EhPX-HCln8B6n-178" vertex="1">
                    <mxGeometry width="40" height="40" relative="1" as="geometry">
                        <mxPoint x="40" as="offset"/>
                    </mxGeometry>
                </mxCell>
                <mxCell id="7kja0_0EhPX-HCln8B6n-181" value="3" style="strokeColor=#DEE2E6;fillColor=#0085FC;gradientColor=inherit;fontColor=#ffffff;html=1;shadow=0;dashed=0;shape=mxgraph.bootstrap.rightButton;rSize=5;perimeter=none;whiteSpace=wrap;resizeHeight=1;fontSize=16;rounded=0;" parent="7kja0_0EhPX-HCln8B6n-178" vertex="1">
                    <mxGeometry x="1" width="40" height="40" relative="1" as="geometry">
                        <mxPoint x="-40" as="offset"/>
                    </mxGeometry>
                </mxCell>
            </root>
        </mxGraphModel>
    </diagram>
    <diagram id="Tg6_4VK22YlRRJGs_QcX" name="Tela de reset de senha">
        <mxGraphModel dx="1420" dy="746" grid="1" gridSize="10" guides="1" tooltips="1" connect="0" arrows="0" fold="1" page="1" pageScale="1" pageWidth="827" pageHeight="1169" math="0" shadow="0">
            <root>
                <mxCell id="0"/>
                <mxCell id="1" parent="0"/>
                <mxCell id="5KNcaxjPCzZAculXtvGd-1" value="" style="group" parent="1" vertex="1" connectable="0">
                    <mxGeometry width="360" height="640" as="geometry"/>
                </mxCell>
                <mxCell id="5KNcaxjPCzZAculXtvGd-2" value="" style="shape=rect;fillColor=#333333;strokeColor=none;" parent="5KNcaxjPCzZAculXtvGd-1" vertex="1">
                    <mxGeometry width="360" height="640" as="geometry"/>
                </mxCell>
                <mxCell id="5KNcaxjPCzZAculXtvGd-3" value="" style="strokeWidth=1;shadow=0;dashed=0;align=center;html=1;shape=mxgraph.mockup.containers.browserWindow;rSize=0;strokeColor=#666666;strokeColor2=#008cff;strokeColor3=#c4c4c4;mainText=,;recursiveResize=0;" parent="5KNcaxjPCzZAculXtvGd-1" vertex="1">
                    <mxGeometry x="10" y="10" width="340" height="620" as="geometry"/>
                </mxCell>
                <mxCell id="5KNcaxjPCzZAculXtvGd-4" value="Forget" style="strokeWidth=1;shadow=0;dashed=0;align=center;html=1;shape=mxgraph.mockup.containers.anchor;fontSize=17;fontColor=#666666;align=left;whiteSpace=wrap;" parent="5KNcaxjPCzZAculXtvGd-3" vertex="1">
                    <mxGeometry x="60" y="12" width="110" height="26" as="geometry"/>
                </mxCell>
                <mxCell id="5KNcaxjPCzZAculXtvGd-5" value="projeto-lumos/forget" style="strokeWidth=1;shadow=0;dashed=0;align=center;html=1;shape=mxgraph.mockup.containers.anchor;rSize=0;fontSize=17;fontColor=#666666;align=left;" parent="5KNcaxjPCzZAculXtvGd-3" vertex="1">
                    <mxGeometry x="130" y="60" width="190" height="26" as="geometry"/>
                </mxCell>
                <mxCell id="YnjjhdL2hDFdyInBQ2rE-3" value="&lt;blockquote&gt;&lt;div&gt;&lt;h1&gt;Esqueci minha senha:&lt;/h1&gt;&lt;/div&gt;&lt;/blockquote&gt;" style="line;strokeWidth=2;html=1;labelPosition=center;verticalLabelPosition=top;align=center;verticalAlign=middle;labelBackgroundColor=none;fontFamily=Helvetica;spacingTop=0;spacing=0;spacingBottom=10;" parent="5KNcaxjPCzZAculXtvGd-3" vertex="1">
                    <mxGeometry x="10" y="170" width="320" height="10" as="geometry"/>
                </mxCell>
            </root>
        </mxGraphModel>
    </diagram>
    <diagram id="yGj1j8o3CC4hvEhsWFOq" name="Tela home">
        <mxGraphModel dx="774" dy="601" grid="1" gridSize="10" guides="1" tooltips="1" connect="0" arrows="0" fold="1" page="1" pageScale="1" pageWidth="827" pageHeight="1169" math="0" shadow="0">
            <root>
                <mxCell id="0"/>
                <mxCell id="1" parent="0"/>
                <mxCell id="9TJ97kWVQw_F9D3FQ_lc-1" value="" style="group" parent="1" vertex="1" connectable="0">
                    <mxGeometry width="360" height="640" as="geometry"/>
                </mxCell>
                <mxCell id="9TJ97kWVQw_F9D3FQ_lc-2" value="" style="shape=rect;fillColor=#333333;strokeColor=none;" parent="9TJ97kWVQw_F9D3FQ_lc-1" vertex="1">
                    <mxGeometry width="360" height="640" as="geometry"/>
                </mxCell>
                <mxCell id="9TJ97kWVQw_F9D3FQ_lc-3" value="" style="strokeWidth=1;shadow=0;dashed=0;align=center;html=1;shape=mxgraph.mockup.containers.browserWindow;rSize=0;strokeColor=#666666;strokeColor2=#008cff;strokeColor3=#c4c4c4;mainText=,;recursiveResize=0;" parent="9TJ97kWVQw_F9D3FQ_lc-1" vertex="1">
                    <mxGeometry x="10" y="10" width="340" height="620" as="geometry"/>
                </mxCell>
                <mxCell id="9TJ97kWVQw_F9D3FQ_lc-4" value="Home" style="strokeWidth=1;shadow=0;dashed=0;align=center;html=1;shape=mxgraph.mockup.containers.anchor;fontSize=17;fontColor=#666666;align=left;whiteSpace=wrap;" parent="9TJ97kWVQw_F9D3FQ_lc-3" vertex="1">
                    <mxGeometry x="60" y="12" width="110" height="26" as="geometry"/>
                </mxCell>
                <mxCell id="9TJ97kWVQw_F9D3FQ_lc-5" value="projeto-lumos/" style="strokeWidth=1;shadow=0;dashed=0;align=center;html=1;shape=mxgraph.mockup.containers.anchor;rSize=0;fontSize=17;fontColor=#666666;align=left;" parent="9TJ97kWVQw_F9D3FQ_lc-3" vertex="1">
                    <mxGeometry x="130" y="60" width="190" height="26" as="geometry"/>
                </mxCell>
                <mxCell id="9TJ97kWVQw_F9D3FQ_lc-37" value="" style="shape=table;startSize=0;container=1;collapsible=0;childLayout=tableLayout;strokeColor=none;fillColor=#4D4D4D;fontColor=#ffffff;fontStyle=1;fontSize=13;" parent="9TJ97kWVQw_F9D3FQ_lc-3" vertex="1">
                    <mxGeometry y="110" width="340" height="40" as="geometry"/>
                </mxCell>
                <mxCell id="9TJ97kWVQw_F9D3FQ_lc-38" value="" style="shape=tableRow;horizontal=0;startSize=0;swimlaneHead=0;swimlaneBody=0;strokeColor=inherit;top=0;left=0;bottom=0;right=0;collapsible=0;dropTarget=0;fillColor=none;points=[[0,0.5],[1,0.5]];portConstraint=eastwest;" parent="9TJ97kWVQw_F9D3FQ_lc-37" vertex="1">
                    <mxGeometry width="340" height="40" as="geometry"/>
                </mxCell>
                <UserObject label="Conversas" link="data:page/id,iM1PIrP9B7IHF9hpMLY1" id="9TJ97kWVQw_F9D3FQ_lc-39">
                    <mxCell style="shape=partialRectangle;html=1;whiteSpace=wrap;connectable=0;strokeColor=inherit;overflow=hidden;fillColor=none;top=0;left=0;bottom=0;right=0;pointerEvents=1;fontStyle=1;fontSize=14;fontColor=#FFFFFF;" parent="9TJ97kWVQw_F9D3FQ_lc-38" vertex="1">
                        <mxGeometry width="114" height="40" as="geometry">
                            <mxRectangle width="114" height="40" as="alternateBounds"/>
                        </mxGeometry>
                    </mxCell>
                </UserObject>
                <UserObject label="Contatos" link="data:page/id,u1Ewy3XUvFYwxd3tq2qa" id="9TJ97kWVQw_F9D3FQ_lc-40">
                    <mxCell style="shape=partialRectangle;html=1;whiteSpace=wrap;connectable=0;strokeColor=inherit;overflow=hidden;fillColor=none;top=0;left=0;bottom=0;right=0;pointerEvents=1;fontStyle=1;fontSize=14;fontColor=#FFFFFF;" parent="9TJ97kWVQw_F9D3FQ_lc-38" vertex="1">
                        <mxGeometry x="114" width="112" height="40" as="geometry">
                            <mxRectangle width="112" height="40" as="alternateBounds"/>
                        </mxGeometry>
                    </mxCell>
                </UserObject>
                <mxCell id="9TJ97kWVQw_F9D3FQ_lc-41" value="" style="shape=partialRectangle;html=1;whiteSpace=wrap;connectable=0;strokeColor=inherit;overflow=hidden;fillColor=none;top=0;left=0;bottom=0;right=0;pointerEvents=1;" parent="9TJ97kWVQw_F9D3FQ_lc-38" vertex="1">
                    <mxGeometry x="226" width="114" height="40" as="geometry">
                        <mxRectangle width="114" height="40" as="alternateBounds"/>
                    </mxGeometry>
                </mxCell>
                <mxCell id="9TJ97kWVQw_F9D3FQ_lc-42" value="&lt;div align=&quot;left&quot;&gt;&amp;nbsp;Outros&lt;/div&gt;" style="html=1;shadow=0;dashed=0;shape=mxgraph.bootstrap.rrect;rSize=5;strokeColor=none;strokeWidth=1;fillColor=#DB2843;fontColor=#FFFFFF;whiteSpace=wrap;align=left;verticalAlign=middle;fontStyle=0;fontSize=16;spacingLeft=0;spacing=5;" parent="9TJ97kWVQw_F9D3FQ_lc-3" vertex="1">
                    <mxGeometry x="240" y="115" width="90" height="30" as="geometry"/>
                </mxCell>
                <mxCell id="9TJ97kWVQw_F9D3FQ_lc-43" value="" style="shape=triangle;direction=south;fillColor=#ffffff;strokeColor=none;perimeter=none;" parent="9TJ97kWVQw_F9D3FQ_lc-42" vertex="1">
                    <mxGeometry x="1" y="0.5" width="10" height="5" relative="1" as="geometry">
                        <mxPoint x="-17" y="-2.5" as="offset"/>
                    </mxGeometry>
                </mxCell>
                <mxCell id="9TJ97kWVQw_F9D3FQ_lc-44" value="" style="html=1;shadow=0;dashed=0;shape=mxgraph.bootstrap.rrect;rSize=5;fillColor=#ffffff;strokeColor=#999999;" parent="9TJ97kWVQw_F9D3FQ_lc-3" vertex="1">
                    <mxGeometry x="160" y="160" width="170" height="110" as="geometry"/>
                </mxCell>
                <UserObject label="Perfil" link="data:page/id,MLCRIFKuU3UzICqBbnOU" id="9TJ97kWVQw_F9D3FQ_lc-45">
                    <mxCell style="fillColor=none;strokeColor=none;align=left;spacing=20;fontSize=14;" parent="9TJ97kWVQw_F9D3FQ_lc-44" vertex="1">
                        <mxGeometry width="170" height="30" relative="1" as="geometry">
                            <mxPoint y="10" as="offset"/>
                        </mxGeometry>
                    </mxCell>
                </UserObject>
                <UserObject label="Configurações" link="data:page/id,Z8QS9_J4e70a_v-pvzFK" id="9TJ97kWVQw_F9D3FQ_lc-46">
                    <mxCell style="fillColor=none;strokeColor=none;align=left;spacing=20;fontSize=14;" parent="9TJ97kWVQw_F9D3FQ_lc-44" vertex="1">
                        <mxGeometry width="170" height="30" relative="1" as="geometry">
                            <mxPoint y="40" as="offset"/>
                        </mxGeometry>
                    </mxCell>
                </UserObject>
                <UserObject label="    Sair" link="data:page/id,QVXukRcYZEAoWH2xmHe6" id="9TJ97kWVQw_F9D3FQ_lc-47">
                    <mxCell style="fillColor=#DB2843;strokeColor=none;align=left;spacing=5;fontSize=16;fontColor=#FFFFFF;shadow=0;dashed=0;strokeWidth=1;spacingLeft=0;fontStyle=0;" parent="9TJ97kWVQw_F9D3FQ_lc-44" vertex="1">
                        <mxGeometry width="170" height="30" relative="1" as="geometry">
                            <mxPoint y="70" as="offset"/>
                        </mxGeometry>
                    </mxCell>
                </UserObject>
            </root>
        </mxGraphModel>
    </diagram>
    <diagram id="iM1PIrP9B7IHF9hpMLY1" name="Tela de conversas">
        <mxGraphModel dx="1136" dy="597" grid="1" gridSize="10" guides="1" tooltips="1" connect="0" arrows="0" fold="1" page="1" pageScale="1" pageWidth="827" pageHeight="1169" math="0" shadow="0">
            <root>
                <mxCell id="0"/>
                <mxCell id="1" parent="0"/>
                <mxCell id="LHMfVq76LtbjfJWQUUQP-1" value="" style="group" parent="1" vertex="1" connectable="0">
                    <mxGeometry width="360" height="640" as="geometry"/>
                </mxCell>
                <mxCell id="LHMfVq76LtbjfJWQUUQP-2" value="" style="shape=rect;fillColor=#333333;strokeColor=none;" parent="LHMfVq76LtbjfJWQUUQP-1" vertex="1">
                    <mxGeometry width="360" height="640" as="geometry"/>
                </mxCell>
                <mxCell id="LHMfVq76LtbjfJWQUUQP-3" value="" style="strokeWidth=1;shadow=0;dashed=0;align=center;html=1;shape=mxgraph.mockup.containers.browserWindow;rSize=0;strokeColor=#666666;strokeColor2=#008cff;strokeColor3=#c4c4c4;mainText=,;recursiveResize=0;" parent="LHMfVq76LtbjfJWQUUQP-1" vertex="1">
                    <mxGeometry x="10" y="10" width="340" height="620" as="geometry"/>
                </mxCell>
                <mxCell id="LHMfVq76LtbjfJWQUUQP-4" value="Conversas" style="strokeWidth=1;shadow=0;dashed=0;align=center;html=1;shape=mxgraph.mockup.containers.anchor;fontSize=17;fontColor=#666666;align=left;whiteSpace=wrap;" parent="LHMfVq76LtbjfJWQUUQP-3" vertex="1">
                    <mxGeometry x="60" y="12" width="110" height="26" as="geometry"/>
                </mxCell>
                <mxCell id="LHMfVq76LtbjfJWQUUQP-5" value="projeto-lumos/conversa" style="strokeWidth=1;shadow=0;dashed=0;align=center;html=1;shape=mxgraph.mockup.containers.anchor;rSize=0;fontSize=17;fontColor=#666666;align=left;" parent="LHMfVq76LtbjfJWQUUQP-3" vertex="1">
                    <mxGeometry x="130" y="60" width="190" height="26" as="geometry"/>
                </mxCell>
                <mxCell id="LHMfVq76LtbjfJWQUUQP-6" value="" style="shape=table;startSize=0;container=1;collapsible=0;childLayout=tableLayout;strokeColor=none;fillColor=#4D4D4D;fontColor=#ffffff;fontStyle=1;fontSize=13;strokeWidth=0;swimlaneLine=1;" parent="LHMfVq76LtbjfJWQUUQP-3" vertex="1">
                    <mxGeometry y="110" width="340" height="40" as="geometry"/>
                </mxCell>
                <mxCell id="LHMfVq76LtbjfJWQUUQP-7" value="" style="shape=tableRow;horizontal=0;startSize=0;swimlaneHead=0;swimlaneBody=0;strokeColor=inherit;top=0;left=0;bottom=0;right=0;collapsible=0;dropTarget=0;fillColor=none;points=[[0,0.5],[1,0.5]];portConstraint=eastwest;" parent="LHMfVq76LtbjfJWQUUQP-6" vertex="1">
                    <mxGeometry width="340" height="40" as="geometry"/>
                </mxCell>
                <UserObject label="Conversas" link="data:page/id,iM1PIrP9B7IHF9hpMLY1" id="LHMfVq76LtbjfJWQUUQP-8">
                    <mxCell style="shape=partialRectangle;html=1;whiteSpace=wrap;connectable=0;overflow=hidden;top=0;left=0;bottom=0;right=0;pointerEvents=1;fontStyle=1;fontSize=14;shadow=0;opacity=80;strokeColor=inherit;strokeWidth=0;" parent="LHMfVq76LtbjfJWQUUQP-7" vertex="1">
                        <mxGeometry width="114" height="40" as="geometry">
                            <mxRectangle width="114" height="40" as="alternateBounds"/>
                        </mxGeometry>
                    </mxCell>
                </UserObject>
                <UserObject label="Contatos" link="data:page/id,u1Ewy3XUvFYwxd3tq2qa" id="LHMfVq76LtbjfJWQUUQP-9">
                    <mxCell style="shape=partialRectangle;html=1;whiteSpace=wrap;connectable=0;strokeColor=inherit;overflow=hidden;fillColor=none;top=0;left=0;bottom=0;right=0;pointerEvents=1;fontStyle=1;fontSize=14;fontColor=#FFFFFF;" parent="LHMfVq76LtbjfJWQUUQP-7" vertex="1">
                        <mxGeometry x="114" width="112" height="40" as="geometry">
                            <mxRectangle width="112" height="40" as="alternateBounds"/>
                        </mxGeometry>
                    </mxCell>
                </UserObject>
                <mxCell id="LHMfVq76LtbjfJWQUUQP-10" value="" style="shape=partialRectangle;html=1;whiteSpace=wrap;connectable=0;strokeColor=inherit;overflow=hidden;fillColor=none;top=0;left=0;bottom=0;right=0;pointerEvents=1;" parent="LHMfVq76LtbjfJWQUUQP-7" vertex="1">
                    <mxGeometry x="226" width="114" height="40" as="geometry">
                        <mxRectangle width="114" height="40" as="alternateBounds"/>
                    </mxGeometry>
                </mxCell>
                <mxCell id="LHMfVq76LtbjfJWQUUQP-11" value="&lt;div align=&quot;left&quot;&gt;&amp;nbsp;Outros&lt;/div&gt;" style="html=1;shadow=0;dashed=0;shape=mxgraph.bootstrap.rrect;rSize=5;strokeColor=none;strokeWidth=1;fillColor=#DB2843;fontColor=#FFFFFF;whiteSpace=wrap;align=left;verticalAlign=middle;fontStyle=0;fontSize=16;spacingLeft=0;spacing=5;" parent="LHMfVq76LtbjfJWQUUQP-3" vertex="1">
                    <mxGeometry x="240" y="115" width="90" height="30" as="geometry"/>
                </mxCell>
                <mxCell id="LHMfVq76LtbjfJWQUUQP-12" value="" style="shape=triangle;direction=south;fillColor=#ffffff;strokeColor=none;perimeter=none;" parent="LHMfVq76LtbjfJWQUUQP-11" vertex="1">
                    <mxGeometry x="1" y="0.5" width="10" height="5" relative="1" as="geometry">
                        <mxPoint x="-17" y="-2.5" as="offset"/>
                    </mxGeometry>
                </mxCell>
                <mxCell id="NE0EFqyehVtEXEDYUwhS-1" value="&lt;font color=&quot;#666666&quot;&gt;Search&lt;/font&gt;" style="strokeWidth=1;shadow=1;dashed=0;align=center;html=1;shape=mxgraph.mockup.forms.searchBox;strokeColor=#999999;mainText=;strokeColor2=#008cff;fontColor=#666666;fontSize=17;align=left;spacingLeft=3;whiteSpace=wrap;" vertex="1" parent="LHMfVq76LtbjfJWQUUQP-3">
                    <mxGeometry x="10" y="160" width="220" height="30" as="geometry"/>
                </mxCell>
                <mxCell id="ony1JTwEdMrLN7D5AjYQ-1" value="" style="group;strokeColor=none;" vertex="1" connectable="0" parent="LHMfVq76LtbjfJWQUUQP-3">
                    <mxGeometry x="240" y="160" width="90" height="30" as="geometry"/>
                </mxCell>
                <mxCell id="ony1JTwEdMrLN7D5AjYQ-2" value="" style="whiteSpace=wrap;html=1;rounded=0;strokeColor=#999999;shadow=1;" vertex="1" parent="ony1JTwEdMrLN7D5AjYQ-1">
                    <mxGeometry width="90" height="30" as="geometry"/>
                </mxCell>
                <mxCell id="ony1JTwEdMrLN7D5AjYQ-3" value="" style="shape=ellipse;fillColor=#FF4081;strokeColor=#666666;shadow=0;aspect=fixed;sketch=0;html=1;labelPosition=center;verticalLabelPosition=bottom;align=center;verticalAlign=top;" vertex="1" parent="ony1JTwEdMrLN7D5AjYQ-1">
                    <mxGeometry x="60" width="30" height="30" as="geometry"/>
                </mxCell>
                <mxCell id="ony1JTwEdMrLN7D5AjYQ-4" value="" style="dashed=0;html=1;shape=mxgraph.gmdl.plus;strokeColor=#ffffff;strokeWidth=2;shadow=0;sketch=0;" vertex="1" parent="ony1JTwEdMrLN7D5AjYQ-3">
                    <mxGeometry x="10.714285714285712" y="10.714285714285712" width="8.571428571428571" height="8.571428571428571" as="geometry"/>
                </mxCell>
                <mxCell id="ony1JTwEdMrLN7D5AjYQ-5" value="" style="shape=ellipse;dashed=0;strokeColor=#666666;shadow=0;fontSize=13;align=center;verticalAlign=top;labelPosition=center;verticalLabelPosition=bottom;html=1;aspect=fixed;gradientColor=none;" vertex="1" parent="ony1JTwEdMrLN7D5AjYQ-1">
                    <mxGeometry x="30" width="30" height="30" as="geometry"/>
                </mxCell>
                <mxCell id="ony1JTwEdMrLN7D5AjYQ-6" value="" style="dashed=0;html=1;shape=mxgraph.gmdl.star;strokeColor=none;fillColor=#737373;shadow=0;sketch=0;html=1;labelPosition=center;verticalLabelPosition=bottom;align=center;verticalAlign=top;" vertex="1" parent="ony1JTwEdMrLN7D5AjYQ-5">
                    <mxGeometry x="9.642857142857142" y="9.642857142857142" width="10.714285714285715" height="10.714285714285715" as="geometry"/>
                </mxCell>
                <mxCell id="ony1JTwEdMrLN7D5AjYQ-13" value="" style="shape=ellipse;dashed=0;strokeColor=#666666;shadow=0;fontSize=13;align=center;verticalAlign=top;labelPosition=center;verticalLabelPosition=bottom;html=1;aspect=fixed;" vertex="1" parent="ony1JTwEdMrLN7D5AjYQ-1">
                    <mxGeometry width="30" height="30" as="geometry"/>
                </mxCell>
                <mxCell id="ony1JTwEdMrLN7D5AjYQ-14" value="" style="dashed=0;html=1;shape=mxgraph.gmdl.reply;strokeColor=none;fillColor=#737373;shadow=0;sketch=0;html=1;labelPosition=center;verticalLabelPosition=bottom;align=center;verticalAlign=top;" vertex="1" parent="ony1JTwEdMrLN7D5AjYQ-13">
                    <mxGeometry x="9.642857142857148" y="10.17857142857143" width="10.714285714285715" height="9.642857142857148" as="geometry"/>
                </mxCell>
            </root>
        </mxGraphModel>
    </diagram>
    <diagram id="u1Ewy3XUvFYwxd3tq2qa" name="Tela de contatos">
        <mxGraphModel dx="979" dy="514" grid="1" gridSize="10" guides="1" tooltips="1" connect="0" arrows="0" fold="1" page="1" pageScale="1" pageWidth="827" pageHeight="1169" math="0" shadow="0">
            <root>
                <mxCell id="0"/>
                <mxCell id="1" parent="0"/>
                <mxCell id="VkUlySVrgeYPclUId9lK-1" value="" style="group" parent="1" vertex="1" connectable="0">
                    <mxGeometry width="360" height="650" as="geometry"/>
                </mxCell>
                <mxCell id="VkUlySVrgeYPclUId9lK-2" value="" style="shape=rect;fillColor=#333333;strokeColor=none;" parent="VkUlySVrgeYPclUId9lK-1" vertex="1">
                    <mxGeometry width="360" height="640" as="geometry"/>
                </mxCell>
                <mxCell id="VkUlySVrgeYPclUId9lK-3" value="" style="strokeWidth=1;shadow=0;dashed=0;align=center;html=1;shape=mxgraph.mockup.containers.browserWindow;rSize=0;strokeColor=none;strokeColor2=#008cff;strokeColor3=#c4c4c4;mainText=,;recursiveResize=0;" parent="VkUlySVrgeYPclUId9lK-1" vertex="1">
                    <mxGeometry x="10" y="10" width="340" height="620" as="geometry"/>
                </mxCell>
                <mxCell id="VkUlySVrgeYPclUId9lK-4" value="Home" style="strokeWidth=1;shadow=0;dashed=0;align=center;html=1;shape=mxgraph.mockup.containers.anchor;fontSize=17;fontColor=#666666;align=left;whiteSpace=wrap;" parent="VkUlySVrgeYPclUId9lK-3" vertex="1">
                    <mxGeometry x="60" y="12" width="110" height="26" as="geometry"/>
                </mxCell>
                <mxCell id="VkUlySVrgeYPclUId9lK-5" value="projeto-lumos/" style="strokeWidth=1;shadow=0;dashed=0;align=center;html=1;shape=mxgraph.mockup.containers.anchor;rSize=0;fontSize=17;fontColor=#666666;align=left;" parent="VkUlySVrgeYPclUId9lK-3" vertex="1">
                    <mxGeometry x="130" y="60" width="190" height="26" as="geometry"/>
                </mxCell>
                <mxCell id="VkUlySVrgeYPclUId9lK-6" value="" style="shape=table;startSize=0;container=1;collapsible=0;childLayout=tableLayout;strokeColor=none;fillColor=#4D4D4D;fontColor=#ffffff;fontStyle=1;fontSize=13;" parent="VkUlySVrgeYPclUId9lK-3" vertex="1">
                    <mxGeometry y="110" width="340" height="40" as="geometry"/>
                </mxCell>
                <mxCell id="VkUlySVrgeYPclUId9lK-7" value="" style="shape=tableRow;horizontal=0;startSize=0;swimlaneHead=0;swimlaneBody=0;strokeColor=inherit;top=0;left=0;bottom=0;right=0;collapsible=0;dropTarget=0;fillColor=none;points=[[0,0.5],[1,0.5]];portConstraint=eastwest;" parent="VkUlySVrgeYPclUId9lK-6" vertex="1">
                    <mxGeometry width="340" height="40" as="geometry"/>
                </mxCell>
                <UserObject label="Conversas" link="data:page/id,iM1PIrP9B7IHF9hpMLY1" id="VkUlySVrgeYPclUId9lK-8">
                    <mxCell style="shape=partialRectangle;html=1;whiteSpace=wrap;connectable=0;strokeColor=inherit;overflow=hidden;fillColor=none;top=0;left=0;bottom=0;right=0;pointerEvents=1;fontStyle=1;fontSize=14;fontColor=#FFFFFF;" parent="VkUlySVrgeYPclUId9lK-7" vertex="1">
                        <mxGeometry width="114" height="40" as="geometry">
                            <mxRectangle width="114" height="40" as="alternateBounds"/>
                        </mxGeometry>
                    </mxCell>
                </UserObject>
                <UserObject label="Contatos" link="data:page/id,u1Ewy3XUvFYwxd3tq2qa" id="VkUlySVrgeYPclUId9lK-9">
                    <mxCell style="shape=partialRectangle;html=1;whiteSpace=wrap;connectable=0;overflow=hidden;top=0;left=0;bottom=0;right=0;pointerEvents=1;fontStyle=1;fontSize=14;opacity=80;" parent="VkUlySVrgeYPclUId9lK-7" vertex="1">
                        <mxGeometry x="114" width="112" height="40" as="geometry">
                            <mxRectangle width="112" height="40" as="alternateBounds"/>
                        </mxGeometry>
                    </mxCell>
                </UserObject>
                <mxCell id="VkUlySVrgeYPclUId9lK-10" value="" style="shape=partialRectangle;html=1;whiteSpace=wrap;connectable=0;strokeColor=inherit;overflow=hidden;fillColor=none;top=0;left=0;bottom=0;right=0;pointerEvents=1;" parent="VkUlySVrgeYPclUId9lK-7" vertex="1">
                    <mxGeometry x="226" width="114" height="40" as="geometry">
                        <mxRectangle width="114" height="40" as="alternateBounds"/>
                    </mxGeometry>
                </mxCell>
                <mxCell id="VkUlySVrgeYPclUId9lK-11" value="&lt;div align=&quot;left&quot;&gt;&amp;nbsp;Outros&lt;/div&gt;" style="html=1;shadow=0;dashed=0;shape=mxgraph.bootstrap.rrect;rSize=5;strokeColor=none;strokeWidth=1;fillColor=#DB2843;fontColor=#FFFFFF;whiteSpace=wrap;align=left;verticalAlign=middle;fontStyle=0;fontSize=16;spacingLeft=0;spacing=5;" parent="VkUlySVrgeYPclUId9lK-3" vertex="1">
                    <mxGeometry x="240" y="115" width="90" height="30" as="geometry"/>
                </mxCell>
                <mxCell id="VkUlySVrgeYPclUId9lK-12" value="" style="shape=triangle;direction=south;fillColor=#ffffff;strokeColor=none;perimeter=none;" parent="VkUlySVrgeYPclUId9lK-11" vertex="1">
                    <mxGeometry x="1" y="0.5" width="10" height="5" relative="1" as="geometry">
                        <mxPoint x="-17" y="-2.5" as="offset"/>
                    </mxGeometry>
                </mxCell>
                <mxCell id="krgIDaWamOoRUzhyevvA-37" value="" style="dashed=0;shape=rect;fillColor=#ffffff;strokeColor=none;" vertex="1" parent="VkUlySVrgeYPclUId9lK-3">
                    <mxGeometry y="210" width="340" height="410" as="geometry"/>
                </mxCell>
                <mxCell id="krgIDaWamOoRUzhyevvA-45" value="Janet Perkins" style="dashed=0;shape=rect;strokeColor=none;resizeWidth=1;fontSize=14;fontColor=#000000;verticalAlign=middle;spacingLeft=72;align=left;whiteSpace=wrap;html=1;" vertex="1" parent="krgIDaWamOoRUzhyevvA-37">
                    <mxGeometry width="340" height="55" relative="1" as="geometry">
                        <mxPoint y="10" as="offset"/>
                    </mxGeometry>
                </mxCell>
                <mxCell id="krgIDaWamOoRUzhyevvA-46" value="" style="dashed=0;shape=mxgraph.gmdl.star;strokeColor=none;fillColor=#D3396E;" vertex="1" parent="krgIDaWamOoRUzhyevvA-45">
                    <mxGeometry y="0.5" width="23" height="21" relative="1" as="geometry">
                        <mxPoint x="16" y="-11" as="offset"/>
                    </mxGeometry>
                </mxCell>
                <mxCell id="krgIDaWamOoRUzhyevvA-47" value="" style="dashed=0;shape=mxgraph.gmdl.user;strokeColor=none;fillColor=#808080;" vertex="1" parent="krgIDaWamOoRUzhyevvA-45">
                    <mxGeometry x="1" y="0.5" width="36" height="36" relative="1" as="geometry">
                        <mxPoint x="-50" y="-18" as="offset"/>
                    </mxGeometry>
                </mxCell>
                <mxCell id="krgIDaWamOoRUzhyevvA-48" value="Mary Johnson" style="dashed=0;shape=rect;strokeColor=none;resizeWidth=1;fontSize=14;fontColor=#000000;verticalAlign=middle;align=left;spacingLeft=72;whiteSpace=wrap;html=1;" vertex="1" parent="krgIDaWamOoRUzhyevvA-37">
                    <mxGeometry width="340" height="55" relative="1" as="geometry">
                        <mxPoint y="65" as="offset"/>
                    </mxGeometry>
                </mxCell>
                <mxCell id="krgIDaWamOoRUzhyevvA-49" value="" style="dashed=0;shape=mxgraph.gmdl.user;strokeColor=none;fillColor=#808080;" vertex="1" parent="krgIDaWamOoRUzhyevvA-48">
                    <mxGeometry x="1" y="0.5" width="36" height="36" relative="1" as="geometry">
                        <mxPoint x="-50" y="-18" as="offset"/>
                    </mxGeometry>
                </mxCell>
                <mxCell id="krgIDaWamOoRUzhyevvA-50" value="Peter Carlsson" style="dashed=0;shape=rect;strokeColor=none;resizeWidth=1;fontSize=14;fontColor=#000000;verticalAlign=middle;align=left;spacingLeft=72;whiteSpace=wrap;html=1;" vertex="1" parent="krgIDaWamOoRUzhyevvA-37">
                    <mxGeometry width="340" height="55" relative="1" as="geometry">
                        <mxPoint y="120" as="offset"/>
                    </mxGeometry>
                </mxCell>
                <mxCell id="krgIDaWamOoRUzhyevvA-51" value="" style="dashed=0;shape=mxgraph.gmdl.user;strokeColor=none;fillColor=#808080;" vertex="1" parent="krgIDaWamOoRUzhyevvA-50">
                    <mxGeometry x="1" y="0.5" width="36" height="36" relative="1" as="geometry">
                        <mxPoint x="-50" y="-18" as="offset"/>
                    </mxGeometry>
                </mxCell>
                <mxCell id="krgIDaWamOoRUzhyevvA-54" value="" style="shape=line;strokeColor=#eeeeee;strokeWidth=1;resizeWidth=1;" vertex="1" parent="krgIDaWamOoRUzhyevvA-37">
                    <mxGeometry x="0.2011" width="271.62011173184356" height="8" relative="1" as="geometry">
                        <mxPoint y="170" as="offset"/>
                    </mxGeometry>
                </mxCell>
                <mxCell id="krgIDaWamOoRUzhyevvA-55" value="Aaron Bennett" style="dashed=0;shape=rect;strokeColor=none;resizeWidth=1;fontSize=14;fontColor=#000000;verticalAlign=middle;align=left;spacingLeft=72;whiteSpace=wrap;html=1;" vertex="1" parent="krgIDaWamOoRUzhyevvA-37">
                    <mxGeometry width="340" height="55" relative="1" as="geometry">
                        <mxPoint y="183" as="offset"/>
                    </mxGeometry>
                </mxCell>
                <mxCell id="krgIDaWamOoRUzhyevvA-56" value="A" style="text;fontSize=24;fontColor=#D3396E;verticalAlign=middle;fontStyle=0;align=center;" vertex="1" parent="krgIDaWamOoRUzhyevvA-55">
                    <mxGeometry y="0.5" width="24" height="24" relative="1" as="geometry">
                        <mxPoint x="16" y="-12" as="offset"/>
                    </mxGeometry>
                </mxCell>
                <mxCell id="krgIDaWamOoRUzhyevvA-57" value="" style="dashed=0;shape=mxgraph.gmdl.user;strokeColor=none;fillColor=#808080;" vertex="1" parent="krgIDaWamOoRUzhyevvA-55">
                    <mxGeometry x="1" y="0.5" width="36" height="36" relative="1" as="geometry">
                        <mxPoint x="-50" y="-18" as="offset"/>
                    </mxGeometry>
                </mxCell>
                <mxCell id="krgIDaWamOoRUzhyevvA-58" value="Abbey Christensen" style="dashed=0;shape=rect;strokeColor=none;resizeWidth=1;fontSize=14;fontColor=#000000;verticalAlign=middle;align=left;spacingLeft=72;whiteSpace=wrap;html=1;" vertex="1" parent="krgIDaWamOoRUzhyevvA-37">
                    <mxGeometry width="340" height="55" relative="1" as="geometry">
                        <mxPoint y="238" as="offset"/>
                    </mxGeometry>
                </mxCell>
                <mxCell id="krgIDaWamOoRUzhyevvA-59" value="" style="dashed=0;shape=mxgraph.gmdl.user;strokeColor=none;fillColor=#808080;" vertex="1" parent="krgIDaWamOoRUzhyevvA-58">
                    <mxGeometry x="1" y="0.5" width="36" height="36" relative="1" as="geometry">
                        <mxPoint x="-50" y="-18" as="offset"/>
                    </mxGeometry>
                </mxCell>
                <mxCell id="krgIDaWamOoRUzhyevvA-60" value="Ali Connors" style="dashed=0;shape=rect;strokeColor=none;resizeWidth=1;fontSize=14;fontColor=#000000;verticalAlign=middle;align=left;spacingLeft=72;whiteSpace=wrap;html=1;" vertex="1" parent="krgIDaWamOoRUzhyevvA-37">
                    <mxGeometry width="340" height="55" relative="1" as="geometry">
                        <mxPoint y="293" as="offset"/>
                    </mxGeometry>
                </mxCell>
                <mxCell id="krgIDaWamOoRUzhyevvA-61" value="" style="dashed=0;shape=mxgraph.gmdl.user;strokeColor=none;fillColor=#808080;" vertex="1" parent="krgIDaWamOoRUzhyevvA-60">
                    <mxGeometry x="1" y="0.5" width="36" height="36" relative="1" as="geometry">
                        <mxPoint x="-50" y="-18" as="offset"/>
                    </mxGeometry>
                </mxCell>
                <mxCell id="krgIDaWamOoRUzhyevvA-62" value="Alex Nelson" style="dashed=0;shape=rect;strokeColor=none;resizeWidth=1;fontSize=14;fontColor=#000000;verticalAlign=middle;align=left;spacingLeft=72;whiteSpace=wrap;html=1;" vertex="1" parent="krgIDaWamOoRUzhyevvA-37">
                    <mxGeometry width="340" height="55" relative="1" as="geometry">
                        <mxPoint y="348" as="offset"/>
                    </mxGeometry>
                </mxCell>
                <mxCell id="krgIDaWamOoRUzhyevvA-63" value="" style="dashed=0;shape=mxgraph.gmdl.user;strokeColor=none;fillColor=#808080;" vertex="1" parent="krgIDaWamOoRUzhyevvA-62">
                    <mxGeometry x="1" y="0.5" width="36" height="36" relative="1" as="geometry">
                        <mxPoint x="-50" y="-18" as="offset"/>
                    </mxGeometry>
                </mxCell>
                <mxCell id="6o18FTmrPVDZCIyQta4m-4" value="&lt;font color=&quot;#999999&quot;&gt;Search&lt;/font&gt;" style="strokeWidth=1;shadow=1;dashed=0;align=center;html=1;shape=mxgraph.mockup.forms.searchBox;mainText=;strokeColor2=#008cff;fontSize=17;align=left;spacingLeft=3;whiteSpace=wrap;part=0;collapsible=0;fixDash=0;strokeColor=#999999;" vertex="1" parent="VkUlySVrgeYPclUId9lK-3">
                    <mxGeometry x="10" y="170" width="220" height="30" as="geometry">
                        <mxRectangle x="10" y="170" width="100" height="30" as="alternateBounds"/>
                    </mxGeometry>
                </mxCell>
                <mxCell id="HYgMCIRWWKwkc-Tk7DTN-10" value="" style="group;shadow=0;" vertex="1" connectable="0" parent="VkUlySVrgeYPclUId9lK-1">
                    <mxGeometry x="250" y="180" width="90" height="30" as="geometry"/>
                </mxCell>
                <mxCell id="HYgMCIRWWKwkc-Tk7DTN-5" value="" style="whiteSpace=wrap;html=1;rounded=0;shadow=1;strokeColor=#999999;" vertex="1" parent="HYgMCIRWWKwkc-Tk7DTN-10">
                    <mxGeometry width="90" height="30" as="geometry"/>
                </mxCell>
                <mxCell id="HYgMCIRWWKwkc-Tk7DTN-1" value="" style="shape=ellipse;fillColor=#FF4081;strokeColor=#666666;shadow=0;aspect=fixed;sketch=0;html=1;labelPosition=center;verticalLabelPosition=bottom;align=center;verticalAlign=top;" vertex="1" parent="HYgMCIRWWKwkc-Tk7DTN-10">
                    <mxGeometry x="60" width="30" height="30" as="geometry"/>
                </mxCell>
                <mxCell id="HYgMCIRWWKwkc-Tk7DTN-2" value="" style="dashed=0;html=1;shape=mxgraph.gmdl.plus;strokeColor=#ffffff;strokeWidth=2;shadow=0;sketch=0;" vertex="1" parent="HYgMCIRWWKwkc-Tk7DTN-1">
                    <mxGeometry x="10.714285714285712" y="10.714285714285712" width="8.571428571428571" height="8.571428571428571" as="geometry"/>
                </mxCell>
                <mxCell id="HYgMCIRWWKwkc-Tk7DTN-6" value="" style="shape=ellipse;dashed=0;strokeColor=#666666;shadow=0;fontSize=13;align=center;verticalAlign=top;labelPosition=center;verticalLabelPosition=bottom;html=1;aspect=fixed;gradientColor=none;" vertex="1" parent="HYgMCIRWWKwkc-Tk7DTN-10">
                    <mxGeometry x="30" width="30" height="30" as="geometry"/>
                </mxCell>
                <mxCell id="HYgMCIRWWKwkc-Tk7DTN-7" value="" style="dashed=0;html=1;shape=mxgraph.gmdl.star;strokeColor=none;fillColor=#737373;shadow=0;sketch=0;html=1;labelPosition=center;verticalLabelPosition=bottom;align=center;verticalAlign=top;" vertex="1" parent="HYgMCIRWWKwkc-Tk7DTN-6">
                    <mxGeometry x="9.642857142857142" y="9.642857142857142" width="10.714285714285715" height="10.714285714285715" as="geometry"/>
                </mxCell>
                <mxCell id="HYgMCIRWWKwkc-Tk7DTN-8" value="" style="shape=ellipse;dashed=0;strokeColor=#666666;shadow=0;fontSize=13;align=center;verticalAlign=top;labelPosition=center;verticalLabelPosition=bottom;html=1;aspect=fixed;" vertex="1" parent="HYgMCIRWWKwkc-Tk7DTN-10">
                    <mxGeometry width="30" height="30" as="geometry"/>
                </mxCell>
                <mxCell id="HYgMCIRWWKwkc-Tk7DTN-9" value="" style="dashed=0;html=1;shape=mxgraph.gmdl.edit;strokeColor=none;fillColor=#737373;shadow=0;sketch=0;html=1;labelPosition=center;verticalLabelPosition=bottom;align=center;verticalAlign=top;" vertex="1" parent="HYgMCIRWWKwkc-Tk7DTN-8">
                    <mxGeometry x="9.642857142857144" y="9.642857142857144" width="10.714285714285715" height="10.714285714285715" as="geometry"/>
                </mxCell>
            </root>
        </mxGraphModel>
    </diagram>
    <diagram id="MLCRIFKuU3UzICqBbnOU" name="Tela perfil do usuário">
        <mxGraphModel dx="1420" dy="746" grid="1" gridSize="10" guides="1" tooltips="1" connect="1" arrows="1" fold="1" page="1" pageScale="1" pageWidth="827" pageHeight="1169" math="0" shadow="0">
            <root>
                <mxCell id="0"/>
                <mxCell id="1" parent="0"/>
                <mxCell id="jmRbbfNVJwWoFsnG_cDw-1" value="" style="group" parent="1" vertex="1" connectable="0">
                    <mxGeometry width="360" height="640" as="geometry"/>
                </mxCell>
                <mxCell id="jmRbbfNVJwWoFsnG_cDw-2" value="" style="shape=rect;fillColor=#333333;strokeColor=none;" parent="jmRbbfNVJwWoFsnG_cDw-1" vertex="1">
                    <mxGeometry width="360" height="640" as="geometry"/>
                </mxCell>
                <mxCell id="jmRbbfNVJwWoFsnG_cDw-3" value="" style="strokeWidth=1;shadow=0;dashed=0;align=center;html=1;shape=mxgraph.mockup.containers.browserWindow;rSize=0;strokeColor=#666666;strokeColor2=#008cff;strokeColor3=#c4c4c4;mainText=,;recursiveResize=0;" parent="jmRbbfNVJwWoFsnG_cDw-1" vertex="1">
                    <mxGeometry x="10" y="10" width="340" height="620" as="geometry"/>
                </mxCell>
                <mxCell id="jmRbbfNVJwWoFsnG_cDw-4" value="Perfil" style="strokeWidth=1;shadow=0;dashed=0;align=center;html=1;shape=mxgraph.mockup.containers.anchor;fontSize=17;fontColor=#666666;align=left;whiteSpace=wrap;" parent="jmRbbfNVJwWoFsnG_cDw-3" vertex="1">
                    <mxGeometry x="60" y="12" width="110" height="26" as="geometry"/>
                </mxCell>
                <mxCell id="jmRbbfNVJwWoFsnG_cDw-5" value="projeto-lumos/profile" style="strokeWidth=1;shadow=0;dashed=0;align=center;html=1;shape=mxgraph.mockup.containers.anchor;rSize=0;fontSize=17;fontColor=#666666;align=left;" parent="jmRbbfNVJwWoFsnG_cDw-3" vertex="1">
                    <mxGeometry x="130" y="60" width="190" height="26" as="geometry"/>
                </mxCell>
                <mxCell id="jmRbbfNVJwWoFsnG_cDw-6" value="" style="shape=table;startSize=0;container=1;collapsible=0;childLayout=tableLayout;strokeColor=none;fillColor=#4D4D4D;fontColor=#ffffff;fontStyle=1;fontSize=13;" parent="jmRbbfNVJwWoFsnG_cDw-3" vertex="1">
                    <mxGeometry y="110" width="340" height="40" as="geometry"/>
                </mxCell>
                <mxCell id="jmRbbfNVJwWoFsnG_cDw-7" value="" style="shape=tableRow;horizontal=0;startSize=0;swimlaneHead=0;swimlaneBody=0;strokeColor=inherit;top=0;left=0;bottom=0;right=0;collapsible=0;dropTarget=0;fillColor=none;points=[[0,0.5],[1,0.5]];portConstraint=eastwest;" parent="jmRbbfNVJwWoFsnG_cDw-6" vertex="1">
                    <mxGeometry width="340" height="40" as="geometry"/>
                </mxCell>
                <UserObject label="Conversas" link="data:page/id,iM1PIrP9B7IHF9hpMLY1" id="jmRbbfNVJwWoFsnG_cDw-8">
                    <mxCell style="shape=partialRectangle;html=1;whiteSpace=wrap;connectable=0;strokeColor=inherit;overflow=hidden;fillColor=none;top=0;left=0;bottom=0;right=0;pointerEvents=1;fontStyle=1;fontSize=14;fontColor=#FFFFFF;" parent="jmRbbfNVJwWoFsnG_cDw-7" vertex="1">
                        <mxGeometry width="114" height="40" as="geometry">
                            <mxRectangle width="114" height="40" as="alternateBounds"/>
                        </mxGeometry>
                    </mxCell>
                </UserObject>
                <UserObject label="Contatos" link="data:page/id,u1Ewy3XUvFYwxd3tq2qa" id="jmRbbfNVJwWoFsnG_cDw-9">
                    <mxCell style="shape=partialRectangle;html=1;whiteSpace=wrap;connectable=0;strokeColor=inherit;overflow=hidden;fillColor=none;top=0;left=0;bottom=0;right=0;pointerEvents=1;fontStyle=1;fontSize=14;fontColor=#FFFFFF;" parent="jmRbbfNVJwWoFsnG_cDw-7" vertex="1">
                        <mxGeometry x="114" width="112" height="40" as="geometry">
                            <mxRectangle width="112" height="40" as="alternateBounds"/>
                        </mxGeometry>
                    </mxCell>
                </UserObject>
                <mxCell id="jmRbbfNVJwWoFsnG_cDw-10" value="" style="shape=partialRectangle;html=1;whiteSpace=wrap;connectable=0;strokeColor=inherit;overflow=hidden;fillColor=none;top=0;left=0;bottom=0;right=0;pointerEvents=1;" parent="jmRbbfNVJwWoFsnG_cDw-7" vertex="1">
                    <mxGeometry x="226" width="114" height="40" as="geometry">
                        <mxRectangle width="114" height="40" as="alternateBounds"/>
                    </mxGeometry>
                </mxCell>
                <mxCell id="jmRbbfNVJwWoFsnG_cDw-11" value="&lt;div align=&quot;left&quot;&gt;&amp;nbsp;Outros&lt;/div&gt;" style="html=1;shadow=0;dashed=0;shape=mxgraph.bootstrap.rrect;rSize=5;strokeColor=none;strokeWidth=1;fillColor=#DB2843;fontColor=#FFFFFF;whiteSpace=wrap;align=left;verticalAlign=middle;fontStyle=0;fontSize=16;spacingLeft=0;spacing=5;" parent="jmRbbfNVJwWoFsnG_cDw-3" vertex="1">
                    <mxGeometry x="240" y="115" width="90" height="30" as="geometry"/>
                </mxCell>
                <mxCell id="jmRbbfNVJwWoFsnG_cDw-12" value="" style="shape=triangle;direction=south;fillColor=#ffffff;strokeColor=none;perimeter=none;" parent="jmRbbfNVJwWoFsnG_cDw-11" vertex="1">
                    <mxGeometry x="1" y="0.5" width="10" height="5" relative="1" as="geometry">
                        <mxPoint x="-17" y="-2.5" as="offset"/>
                    </mxGeometry>
                </mxCell>
                <mxCell id="_ye0AyEI4BIqwXD0mhWT-1" value="" style="shape=image;html=1;verticalAlign=top;verticalLabelPosition=bottom;labelBackgroundColor=#ffffff;imageAspect=0;aspect=fixed;image=https://cdn1.iconfinder.com/data/icons/ui-essential-17/32/UI_Essential_Outline_1_essential-app-ui-avatar-profile-user-account-128.png" vertex="1" parent="jmRbbfNVJwWoFsnG_cDw-3">
                    <mxGeometry x="106" y="160" width="128" height="128" as="geometry"/>
                </mxCell>
                <mxCell id="_ye0AyEI4BIqwXD0mhWT-2" value="&lt;div&gt;Nome&lt;/div&gt;&lt;div&gt;&lt;br&gt;&lt;/div&gt;" style="text;html=1;strokeColor=none;fillColor=none;align=center;verticalAlign=middle;whiteSpace=wrap;rounded=0;" vertex="1" parent="jmRbbfNVJwWoFsnG_cDw-3">
                    <mxGeometry x="10" y="295" width="320" height="30" as="geometry"/>
                </mxCell>
            </root>
        </mxGraphModel>
    </diagram>
    <diagram id="Z8QS9_J4e70a_v-pvzFK" name="Tela de configurações">
        <mxGraphModel dx="1420" dy="746" grid="1" gridSize="10" guides="1" tooltips="1" connect="1" arrows="1" fold="1" page="1" pageScale="1" pageWidth="827" pageHeight="1169" math="0" shadow="0">
            <root>
                <mxCell id="0"/>
                <mxCell id="1" parent="0"/>
                <mxCell id="ACKw-PbwWIlU10uwEj5c-1" value="" style="group" parent="1" vertex="1" connectable="0">
                    <mxGeometry width="360" height="640" as="geometry"/>
                </mxCell>
                <mxCell id="ACKw-PbwWIlU10uwEj5c-2" value="" style="shape=rect;fillColor=#333333;strokeColor=none;" parent="ACKw-PbwWIlU10uwEj5c-1" vertex="1">
                    <mxGeometry width="360" height="640" as="geometry"/>
                </mxCell>
                <mxCell id="ACKw-PbwWIlU10uwEj5c-3" value="" style="strokeWidth=1;shadow=0;dashed=0;align=center;html=1;shape=mxgraph.mockup.containers.browserWindow;rSize=0;strokeColor=#666666;strokeColor2=#008cff;strokeColor3=#c4c4c4;mainText=,;recursiveResize=0;" parent="ACKw-PbwWIlU10uwEj5c-1" vertex="1">
                    <mxGeometry x="10" y="10" width="340" height="620" as="geometry"/>
                </mxCell>
                <mxCell id="ACKw-PbwWIlU10uwEj5c-4" value="Home" style="strokeWidth=1;shadow=0;dashed=0;align=center;html=1;shape=mxgraph.mockup.containers.anchor;fontSize=17;fontColor=#666666;align=left;whiteSpace=wrap;" parent="ACKw-PbwWIlU10uwEj5c-3" vertex="1">
                    <mxGeometry x="60" y="12" width="110" height="26" as="geometry"/>
                </mxCell>
                <mxCell id="ACKw-PbwWIlU10uwEj5c-5" value="projeto-lumos/" style="strokeWidth=1;shadow=0;dashed=0;align=center;html=1;shape=mxgraph.mockup.containers.anchor;rSize=0;fontSize=17;fontColor=#666666;align=left;" parent="ACKw-PbwWIlU10uwEj5c-3" vertex="1">
                    <mxGeometry x="130" y="60" width="190" height="26" as="geometry"/>
                </mxCell>
                <mxCell id="ACKw-PbwWIlU10uwEj5c-6" value="" style="shape=table;startSize=0;container=1;collapsible=0;childLayout=tableLayout;strokeColor=none;fillColor=#4D4D4D;fontColor=#ffffff;fontStyle=1;fontSize=13;" parent="ACKw-PbwWIlU10uwEj5c-3" vertex="1">
                    <mxGeometry y="110" width="340" height="40" as="geometry"/>
                </mxCell>
                <mxCell id="ACKw-PbwWIlU10uwEj5c-7" value="" style="shape=tableRow;horizontal=0;startSize=0;swimlaneHead=0;swimlaneBody=0;strokeColor=inherit;top=0;left=0;bottom=0;right=0;collapsible=0;dropTarget=0;fillColor=none;points=[[0,0.5],[1,0.5]];portConstraint=eastwest;" parent="ACKw-PbwWIlU10uwEj5c-6" vertex="1">
                    <mxGeometry width="340" height="40" as="geometry"/>
                </mxCell>
                <UserObject label="Conversas" link="data:page/id,iM1PIrP9B7IHF9hpMLY1" id="ACKw-PbwWIlU10uwEj5c-8">
                    <mxCell style="shape=partialRectangle;html=1;whiteSpace=wrap;connectable=0;strokeColor=inherit;overflow=hidden;fillColor=none;top=0;left=0;bottom=0;right=0;pointerEvents=1;fontStyle=1;fontSize=14;fontColor=#FFFFFF;" parent="ACKw-PbwWIlU10uwEj5c-7" vertex="1">
                        <mxGeometry width="114" height="40" as="geometry">
                            <mxRectangle width="114" height="40" as="alternateBounds"/>
                        </mxGeometry>
                    </mxCell>
                </UserObject>
                <UserObject label="Contatos" link="data:page/id,u1Ewy3XUvFYwxd3tq2qa" id="ACKw-PbwWIlU10uwEj5c-9">
                    <mxCell style="shape=partialRectangle;html=1;whiteSpace=wrap;connectable=0;strokeColor=inherit;overflow=hidden;fillColor=none;top=0;left=0;bottom=0;right=0;pointerEvents=1;fontStyle=1;fontSize=14;fontColor=#FFFFFF;" parent="ACKw-PbwWIlU10uwEj5c-7" vertex="1">
                        <mxGeometry x="114" width="112" height="40" as="geometry">
                            <mxRectangle width="112" height="40" as="alternateBounds"/>
                        </mxGeometry>
                    </mxCell>
                </UserObject>
                <mxCell id="ACKw-PbwWIlU10uwEj5c-10" value="" style="shape=partialRectangle;html=1;whiteSpace=wrap;connectable=0;strokeColor=inherit;overflow=hidden;fillColor=none;top=0;left=0;bottom=0;right=0;pointerEvents=1;" parent="ACKw-PbwWIlU10uwEj5c-7" vertex="1">
                    <mxGeometry x="226" width="114" height="40" as="geometry">
                        <mxRectangle width="114" height="40" as="alternateBounds"/>
                    </mxGeometry>
                </mxCell>
                <mxCell id="ACKw-PbwWIlU10uwEj5c-11" value="&lt;div align=&quot;left&quot;&gt;&amp;nbsp;Outros&lt;/div&gt;" style="html=1;shadow=0;dashed=0;shape=mxgraph.bootstrap.rrect;rSize=5;strokeColor=none;strokeWidth=1;fillColor=#DB2843;fontColor=#FFFFFF;whiteSpace=wrap;align=left;verticalAlign=middle;fontStyle=0;fontSize=16;spacingLeft=0;spacing=5;" parent="ACKw-PbwWIlU10uwEj5c-3" vertex="1">
                    <mxGeometry x="240" y="115" width="90" height="30" as="geometry"/>
                </mxCell>
                <mxCell id="ACKw-PbwWIlU10uwEj5c-12" value="" style="shape=triangle;direction=south;fillColor=#ffffff;strokeColor=none;perimeter=none;" parent="ACKw-PbwWIlU10uwEj5c-11" vertex="1">
                    <mxGeometry x="1" y="0.5" width="10" height="5" relative="1" as="geometry">
                        <mxPoint x="-17" y="-2.5" as="offset"/>
                    </mxGeometry>
                </mxCell>
            </root>
        </mxGraphModel>
    </diagram>
</mxfile>